<mxfile host="app.diagrams.net" modified="2023-12-26T08:05:22.189Z" agent="Mozilla/5.0 (Windows NT 10.0; Win64; x64) AppleWebKit/537.36 (KHTML, like Gecko) Chrome/120.0.0.0 Safari/537.36" version="22.1.11" etag="ezTcWyZVhPPhJT7F0Hpc" type="github">
  <diagram name="第 1 页" id="8i4A3TAf_9w8zcIWHjuv">
    <mxGraphModel>
      <root>
        <mxCell id="0" />
        <mxCell id="1" parent="0" />
      </root>
    </mxGraphModel>
  </diagram>
</mxfile>
